<svg xmlns="http://www.w3.org/2000/svg" width="45" height="45" viewBox="0 0 43.343 43.343">
  <defs>
    <style>
      .cls-1 {
        fill: #000000;
        opacity: 60%;
      }
    </style>
  </defs>
  <g id="_1399542_instagram_material_design_icon" data-name="1399542_instagram_material design_icon" transform="translate(-36.3 -36.5)">
    <g id="XMLID_17_" transform="translate(36.3 36.5)">
      <path id="XMLID_21_" class="cls-1" d="M57.972,40.4c5.816,0,6.474,0,8.778.11a11.124,11.124,0,0,1,4.005.768,6.31,6.31,0,0,1,2.469,1.646,7.492,7.492,0,0,1,1.646,2.469,12.889,12.889,0,0,1,.768,4.005c.11,2.3.11,2.963.11,8.778s0,6.474-.11,8.778a11.124,11.124,0,0,1-.768,4.005,6.31,6.31,0,0,1-1.646,2.469,7.492,7.492,0,0,1-2.469,1.646,12.889,12.889,0,0,1-4.005.768c-2.3.11-2.963.11-8.778.11s-6.474,0-8.778-.11a11.124,11.124,0,0,1-4.005-.768,6.31,6.31,0,0,1-2.469-1.646,7.492,7.492,0,0,1-1.646-2.469,12.889,12.889,0,0,1-.768-4.005c-.11-2.3-.11-2.963-.11-8.778s0-6.474.11-8.778a11.124,11.124,0,0,1,.768-4.005,6.31,6.31,0,0,1,1.646-2.469,7.492,7.492,0,0,1,2.469-1.646,12.889,12.889,0,0,1,4.005-.768c2.3-.11,2.963-.11,8.778-.11m0-3.9c-5.871,0-6.639,0-8.943.11a17.286,17.286,0,0,0-5.267.988,10.613,10.613,0,0,0-3.841,2.524A11.377,11.377,0,0,0,37.4,43.962a15.766,15.766,0,0,0-.988,5.267c-.11,2.3-.11,3.072-.11,8.943s0,6.639.11,8.943a17.286,17.286,0,0,0,.988,5.267,10.613,10.613,0,0,0,2.524,3.841,11.376,11.376,0,0,0,3.841,2.524,15.766,15.766,0,0,0,5.267.988c2.3.11,3.072.11,8.943.11s6.639,0,8.943-.11a17.286,17.286,0,0,0,5.267-.988,10.613,10.613,0,0,0,3.841-2.524,11.377,11.377,0,0,0,2.524-3.841,15.766,15.766,0,0,0,.988-5.267c.11-2.3.11-3.072.11-8.943s0-6.639-.11-8.943a17.286,17.286,0,0,0-.988-5.267,10.613,10.613,0,0,0-2.524-3.841A11.376,11.376,0,0,0,72.182,37.6a15.766,15.766,0,0,0-5.267-.988c-2.359-.11-3.072-.11-8.943-.11Z" transform="translate(-36.3 -36.5)"/>
      <path id="XMLID_19_" class="cls-1" d="M66.638,55.7A11.138,11.138,0,1,0,77.775,66.838,11.146,11.146,0,0,0,66.638,55.7Zm0,18.38a7.242,7.242,0,1,1,7.242-7.242A7.235,7.235,0,0,1,66.638,74.08Z" transform="translate(-44.966 -45.166)"/>
      <circle id="XMLID_18_" class="cls-1" cx="2.579" cy="2.579" r="2.579" transform="translate(30.67 7.517)"/>
    </g>
  </g>
</svg>
